<svg data-v-0dd9719b="" version="1.0" xmlns="http://www.w3.org/2000/svg" xmlns:xlink="http://www.w3.org/1999/xlink" width="100%" height="100%" viewBox="0 0 340.000000 250.000000" preserveAspectRatio="xMidYMid meet" color-interpolation-filters="sRGB" style="margin: auto;"> <rect data-v-0dd9719b="" x="0" y="0" width="100%" height="100%" fill="#ffffff" fill-opacity="1" class="background"></rect> <rect data-v-0dd9719b="" x="0" y="0" width="100%" height="100%" fill="url(#watermark)" fill-opacity="1" class="watermarklayer"></rect> <g data-v-0dd9719b="" fill="#a23bea" class="icon-text-wrapper icon-svg-group iconsvg" transform="translate(49.81499481201172,94.99970054626465)"><g class="iconsvg-imagesvg" transform="translate(0,0)"><g><rect fill="#a23bea" fill-opacity="0" stroke-width="2" x="0" y="0" width="60" height="60.000600006000056" class="image-rect"></rect> <svg filter="url(#colors8263087808)" x="0" y="0" width="60" height="60.000600006000056" filtersec="colorsf4626055502" class="image-svg-svg primary" style="overflow: visible;"><svg xmlns="http://www.w3.org/2000/svg" xmlns:xlink="http://www.w3.org/1999/xlink" version="1.1" x="0px" y="0px" viewBox="0 -0.000717461109161377 503.9979553222656 504.00177001953125" xml:space="preserve"><path d="M5.996,221.48c4.26,3.416,10.503,5.845,17.735,7.408c-1.039,26.795-8.649,53.164-23.258,80.493  c-0.698,1.306-0.618,2.89,0.208,4.118s2.265,1.899,3.736,1.746c6.882-0.721,13.825-3.567,21.249-8.782  c-4.744,13.494-9.982,34.535-8.552,59.107c-5.733,43.69-2.791,90.51,8.511,135.406c0.457,1.814,2.086,3.024,3.876,3.024  c0.323,0,0.651-0.039,0.979-0.122c2.143-0.539,3.441-2.713,2.902-4.855c-8.372-33.255-12.049-67.573-10.915-100.814  c6.775,25.412,17.348,42.696,17.959,43.682c0.77,1.239,2.165,1.946,3.605,1.887c1.455-0.075,2.755-0.936,3.392-2.247l6.289-12.94  c2.466,31.306,12.828,55.697,31.466,74.244C85.959,503.612,86.98,504,88,504c1.027,0,2.054-0.393,2.835-1.179  c1.559-1.565,1.553-4.099-0.014-5.656c-20.144-20.046-29.854-47.769-29.686-84.752c0.009-1.867-1.275-3.492-3.094-3.915  c-1.818-0.424-3.688,0.468-4.504,2.148l-9.925,20.423c-5.796-11.384-16.704-36.306-18.496-65.564  c-2.437-39.809,14.178-70.788,14.345-71.094c0.952-1.739,0.486-3.915-1.096-5.111s-3.803-1.053-5.217,0.338  c-7.854,7.721-14.976,12.868-21.554,15.557c12.216-25.048,18.959-50.21,20.097-74.971c4.691,0.578,9.614,0.858,14.562,0.858  c7.13,0,14.302-0.582,20.886-1.664c-4.469,32.749,0.14,62.44,1.75,71.188c-3.103,2.508-8.867,7.873-13.527,16.224  c-6.047,10.836-11.34,28.967-2.216,53.808c7.989,21.753,34.466,42.867,74.552,59.455c38.432,15.902,83.738,25.023,124.302,25.023  s85.87-9.121,124.302-25.023c40.086-16.588,66.563-37.702,74.552-59.455c9.124-24.841,3.831-42.972-2.216-53.808  c-4.66-8.351-10.425-13.716-13.527-16.224c1.61-8.748,6.218-38.44,1.75-71.188c6.585,1.082,13.754,1.664,20.886,1.664  c4.948,0,9.873-0.28,14.565-0.858c1.136,24.757,7.877,49.922,20.094,74.971c-6.579-2.688-13.7-7.836-21.556-15.557  c-1.414-1.391-3.631-1.533-5.213-0.338c-1.582,1.194-2.05,3.368-1.101,5.108c0.168,0.309,16.783,31.288,14.347,71.097  c-1.792,29.259-12.7,54.182-18.496,65.564l-9.925-20.423c-0.816-1.68-2.683-2.572-4.504-2.148c-1.818,0.423-3.103,2.048-3.094,3.915  c0.168,36.983-9.542,64.706-29.686,84.752c-1.566,1.558-1.572,4.091-0.014,5.656c0.781,0.786,1.808,1.179,2.835,1.179  c1.021,0,2.041-0.388,2.821-1.165c18.638-18.547,29-42.938,31.466-74.244l6.289,12.94c0.637,1.312,1.937,2.172,3.392,2.247  c1.457,0.063,2.837-0.647,3.605-1.887c0.611-0.986,11.185-18.27,17.959-43.683c1.135,33.24-2.543,67.557-10.915,100.814  c-0.539,2.143,0.76,4.316,2.902,4.855c0.328,0.083,0.656,0.122,0.979,0.122c1.79,0,3.419-1.21,3.876-3.024  c11.302-44.895,14.242-91.707,8.511-135.395c1.432-24.577-3.808-45.622-8.553-59.117c7.425,5.215,14.368,8.061,21.25,8.782  c1.474,0.151,2.91-0.518,3.736-1.746s0.906-2.813,0.208-4.118c-14.608-27.33-22.216-53.695-23.257-80.494  c7.231-1.563,13.474-3.992,17.734-7.408c4.956-3.974,5.996-8.336,5.996-11.296c0-7.897-10.616-17.693-23.253-26.56  c-0.642-7.681-3.198-14.985-7.679-21.83c5.569,1.053,10.948,0.93,16.092-0.375c1.589-0.403,2.771-1.734,2.983-3.359  c0.212-1.625-0.589-3.215-2.021-4.012c-6.794-3.784-9.358-9.235-12.327-15.547c-2.313-4.918-4.937-10.494-9.875-15.454  c-6.454-6.482-14.017-9.328-19.546-10.577c3.302-4.368,6.3-9.179,8.804-14.487c18.652-39.538,12.595-73.118-17.518-97.111  c-1.135-0.905-2.671-1.123-4.015-0.571c-1.343,0.553-2.28,1.79-2.45,3.231c-4.006,34.005-38.289,56.299-69.902,69.793  c2.69-4.09,4.463-8.707,5.335-13.877c0.256-1.518-0.381-3.047-1.639-3.934c-1.258-0.888-2.915-0.974-4.256-0.224  c-7.502,4.19-14.896,6.761-22.342,7.745c11.769-9.367,17.679-23.19,17.604-41.272c-0.006-1.467-0.814-2.813-2.106-3.507  c-1.29-0.693-2.858-0.625-4.087,0.178c-8.299,5.441-16.448,5.857-25.884,6.34c-7.482,0.383-15.963,0.817-25.7,3.818  c-8.476,2.612-16.635,7.057-23.534,11.601c2.763-9.178,2.047-19.086-2.167-29.646c-0.56-1.402-1.861-2.369-3.364-2.501  c-1.52-0.131-2.956,0.595-3.751,1.877c-0.188,0.302-19.032,30.25-44.129,34.138c-24.518,3.791-42.881-19.944-43.06-20.18  c-0.908-1.203-2.415-1.792-3.894-1.528c-1.482,0.264-2.69,1.337-3.127,2.778c-3.81,12.573-2.919,23.397,2.632,32.3  c-16.379-1.938-28.288-10.139-35.47-24.461c-0.666-1.33-2.016-2.18-3.504-2.207c-1.477-0.014-2.866,0.775-3.58,2.08  c-4.739,8.66-10.111,20.725-8.018,33.153c-24.586-12.865-51.01-33.269-54.449-62.464c-0.17-1.442-1.107-2.679-2.45-3.231  c-1.344-0.552-2.881-0.334-4.015,0.571C34.228,24.864,28.17,58.444,46.821,97.982c2.505,5.31,5.517,10.124,8.834,14.488  c-5.531,1.244-13.109,4.082-19.575,10.576c-4.938,4.96-7.562,10.536-9.875,15.454c-2.969,6.312-5.533,11.763-12.327,15.547  c-1.432,0.797-2.232,2.387-2.021,4.012c0.213,1.625,1.395,2.957,2.983,3.359c5.143,1.306,10.523,1.428,16.092,0.375  c-4.481,6.844-7.036,14.145-7.679,21.825C9.552,193.297,0,202.903,0,210.184C0,213.144,1.04,217.506,5.996,221.48z M11.001,215.239  c-0.318-0.255-0.595-0.504-0.849-0.748c0.95,0.024,1.904,0.058,2.847,0.058c23.48,0,44.694-7.373,63.346-21.989  c-1.693,4.541-3.286,9.426-4.731,14.687c-1.264,4.603-2.291,9.221-3.135,13.812C46.641,225.284,20.327,222.718,11.001,215.239z   M170.69,436.068c-3.095-2.082-21.166-15.177-22.873-37.947c-1.794-23.94,8.571-51.003,35.771-57.492  c16.854-4.019,27.839,2.317,39.471,9.026c8.723,5.032,17.742,10.235,28.94,10.235s20.218-5.203,28.94-10.235  c11.633-6.708,22.619-13.045,39.47-9.026c27.201,6.489,37.566,33.552,35.772,57.492c-1.706,22.77-19.778,35.865-22.873,37.947  c-26.948,7.13-55.14,11.047-81.31,11.047S197.639,443.198,170.69,436.068z M443.344,367.879  c-7.104,19.345-32.655,39.326-70.101,54.82c-7.299,3.02-14.857,5.781-22.579,8.284c6.222-7.408,12.44-18.163,13.497-32.264  c2.047-27.324-10.113-58.289-41.895-65.871c-19.942-4.761-33.429,3.018-45.323,9.878c-8.17,4.713-15.888,9.165-24.943,9.165  s-16.773-4.452-24.943-9.165c-11.895-6.86-25.376-14.637-45.324-9.878c-31.78,7.582-43.94,38.547-41.894,65.871  c1.057,14.101,7.275,24.856,13.497,32.264c-7.723-2.502-15.28-5.263-22.579-8.284c-37.445-15.494-62.996-35.476-70.101-54.82  c-15.298-41.649,13.603-61.421,14.83-62.235c1.383-0.905,2.067-2.567,1.721-4.184c-0.102-0.475-10.008-47.916,2.122-92.095  c7.328-26.689,18.521-43.156,26.989-52.501c0.81-0.066,1.631-0.13,2.467-0.195c9.063-0.701,19.806-1.532,29.886-7.648  c-3.651,31.238,24.46,47.442,47.099,57.167c1.539,0.661,3.33,0.293,4.483-0.925c1.152-1.217,1.424-3.024,0.68-4.526  c-6.091-12.294-7.577-23.919-4.459-35.251c13.617,35.791,61.373,41.031,103.521,41.031c0.674,0,1.35-0.001,2.021-0.004  c1.087-0.004,2.126-0.451,2.877-1.237c0.751-0.787,1.149-1.845,1.104-2.931c-0.338-8.015-1.777-15.384-4.301-22.063  c14.534,8.59,32.126,13.719,52.569,15.301c1.622,0.123,3.16-0.745,3.887-2.2c7.396-14.799,8.352-27.328,2.891-37.432  c10.465,5.98,17.045,16.805,19.977,32.736c0.257,1.398,1.237,2.555,2.575,3.038c1.339,0.483,2.831,0.22,3.922-0.692  c0.813-0.679,17.386-14.792,18.917-35.469c7.725,8.197,20.352,25.079,28.238,53.802c12.111,44.112,2.223,91.621,2.121,92.096  c-0.343,1.606,0.342,3.268,1.711,4.176C429.741,306.458,458.642,326.229,443.344,367.879z M435.52,221.059  c-0.844-4.591-1.871-9.21-3.135-13.812c-1.446-5.265-3.04-10.154-4.731-14.687c18.652,14.616,39.864,21.989,63.346,21.989  c0.943,0,1.897-0.034,2.848-0.058c-0.254,0.245-0.532,0.494-0.85,0.748C483.672,222.719,457.36,225.285,435.52,221.059z   M494.371,206.493c-29.096,0.974-53.702-9.671-75.057-32.438c-4.441-8.248-8.989-14.648-12.973-19.448  c16.747,5.856,36.035,14.862,53.437,25.111C480.237,191.768,490.655,201.14,494.371,206.493z M462.25,128.691  c3.961,3.977,6.071,8.464,8.306,13.215c2.008,4.268,4.057,8.625,7.448,12.519c-4.964-0.393-10.191-2.031-15.786-4.933  c-1.771-0.919-3.954-0.391-5.108,1.243c-1.153,1.632-0.925,3.866,0.535,5.23c7.262,6.788,11.874,13.913,13.968,21.598  c-2.614-1.649-5.229-3.237-7.776-4.737c-19.296-11.364-40.925-21.261-59.136-27.214c10.167-4.447,25.191-12.634,37.699-26.036  C446.079,119.911,455.09,121.499,462.25,128.691z M439.881,11.62c22.645,21.219,26.035,49.089,10.063,82.949  c-13.586,28.8-44.077,42.278-55.023,46.316c-4.393-15.9-15.75-23.768-22.394-27.121c5.623-6.62,14.018-10.49,25.507-11.788  c1.555-0.175,2.863-1.241,3.352-2.728c0.487-1.486,0.064-3.121-1.084-4.183c-9.822-9.09-23.722-12.279-37.614-12.837  C395.034,68.962,431.641,46.584,439.881,11.62z M137.048,43.175c10.273,15.324,26.305,22.986,47.677,22.699  c1.634-0.019,3.092-1.03,3.683-2.553c0.591-1.523,0.195-3.252-0.997-4.368c-6.956-6.503-9.637-14.331-8.207-24.269  c8.031,7.929,24.436,20.513,45.295,17.283c20.895-3.237,37.218-21.018,44.908-31.025c2.789,12.629-0.928,23.741-11.252,33.766  c-0.59,0.55-0.948,0.897-1.046,0.993c-1.564,1.53-1.609,4.034-0.1,5.619c1.51,1.583,4.014,1.662,5.617,0.172  c0.29-0.269,0.574-0.537,0.855-0.808c3.821-3.547,21.064-18.89,39.095-24.448c8.784-2.708,16.394-3.097,23.752-3.473  c7.958-0.407,15.571-0.797,23.358-4.136c-1.668,16.828-10.063,28.203-25.522,34.662c-1.668,0.697-2.661,2.426-2.423,4.218  s1.648,3.201,3.44,3.438c11,1.453,22.017-0.065,32.865-4.516c-4.042,7.93-12.008,13.628-24.449,17.621  c-1.971,0.633-3.134,2.666-2.68,4.686c0.453,2.02,2.377,3.357,4.427,3.088c23.869-3.158,40.777-1.898,52.181,4.001  c-11.027,2.996-19.272,8.887-24.579,17.583c-0.646,1.057-0.765,2.353-0.323,3.51c0.441,1.157,1.395,2.044,2.58,2.403  c0.19,0.058,19.117,6.015,22.856,27.458c2.522,14.466-5.366,26.653-10.851,33.124c-5.834-21.023-18.892-33.339-38.896-36.65  c-1.84-0.305-3.644,0.7-4.352,2.423c-0.71,1.722-0.137,3.707,1.383,4.785c12.157,8.633,14.353,20.405,6.816,36.909  c-26.771-2.542-48.017-11.643-63.182-27.07c-0.042-0.043-0.085-0.087-0.127-0.13c-1.548-1.572-4.078-1.595-5.653-0.049  c-1.575,1.546-1.601,4.076-0.057,5.653c0.039,0.041,0.079,0.081,0.118,0.121c8.289,8.478,13.14,19.433,14.45,32.613  c-62.046-0.388-91.837-14.734-96.402-46.272c-0.247-1.706-1.56-3.063-3.257-3.365c-0.235-0.042-0.471-0.062-0.703-0.062  c-1.448,0-2.809,0.789-3.517,2.095c-7.573,13.982-8.92,28.64-4.041,43.696c-28.993-14.579-38.529-31.701-30.868-54.691  c0.594-1.782-0.132-3.736-1.744-4.699c-1.613-0.962-3.678-0.674-4.965,0.694c-10.303,10.954-22.372,11.887-34.044,12.79  c-5.604,0.433-10.999,0.851-15.854,2.404c1.877-18.546,12.168-31.722,31.303-40.166c1.277-0.564,2.169-1.753,2.351-3.138  s-0.371-2.764-1.46-3.639c-6.947-5.584-15.801-8.052-26.855-7.444c10.487-11.18,21.97-17.388,34.884-18.905  c1.309-0.154,2.457-0.942,3.071-2.107s0.616-2.559,0.003-3.725C131.402,63.957,131.81,54.896,137.048,43.175z M64.129,11.611  c5.566,23.315,24.726,44.085,56.037,60.755c-13.103,4.273-24.75,13.241-35.35,27.19c-1.004,1.321-1.088,3.125-0.212,4.534  c0.877,1.41,2.533,2.13,4.161,1.813c10.235-1.993,18.457-1.661,24.905,1.035c-11.25,6.243-19.323,14.465-24.182,24.591  c-12.204-7.27-27.023-19.136-35.431-36.959C38.081,60.705,41.478,32.831,64.129,11.611z M46.891,150.734  c-1.153-1.633-3.335-2.163-5.108-1.243c-5.595,2.902-10.821,4.541-15.786,4.933c3.392-3.895,5.44-8.251,7.448-12.519  c2.234-4.75,4.345-9.238,8.306-13.215c7.153-7.184,16.297-8.756,19.94-9.1c8.028,8.553,17.022,14.943,24.873,19.505  c-1.137,3.777-1.9,7.774-2.278,11.992c-16.432,6.604-35.837,16.296-51.885,26.436c2.099-7.669,6.707-14.782,13.957-21.558  C47.816,154.6,48.044,152.367,46.891,150.734z M33.491,186.379c14.805-9.716,33.559-19.52,51.086-26.768  c0.369,0.61,0.9,1.121,1.553,1.467c1.311,0.692,2.896,0.605,4.122-0.231c1.224-0.834,2.593-1.475,4.08-1.985  c-3.153,4.214-6.444,9.25-9.65,15.198c-21.356,22.764-45.959,33.409-75.056,32.434C12.423,202.428,19.269,195.713,33.491,186.379z   M160.491,267.369c0,10.085-7.732,18.26-17.269,18.26c-9.538,0-17.269-8.175-17.269-18.26c0-10.085,7.732-18.26,17.269-18.26  C152.759,249.109,160.491,257.285,160.491,267.369z M224.911,420.007c1.265,1.813,0.82,4.306-0.991,5.569  c-0.697,0.486-1.495,0.72-2.285,0.72c-1.264,0-2.507-0.597-3.284-1.711c-15.159-21.729-28.025-28.551-43.022-22.81  c-2.059,0.792-4.376-0.242-5.165-2.306c-0.79-2.063,0.242-4.376,2.306-5.165C196.605,385.062,213.176,403.185,224.911,420.007z   M378.047,267.369c0,10.085-7.732,18.26-17.269,18.26c-9.537,0-17.269-8.175-17.269-18.26c0-10.085,7.732-18.26,17.269-18.26  C370.316,249.109,378.047,257.285,378.047,267.369z M328.672,401.775c-14.999-5.739-27.863,1.081-43.022,22.81  c-0.777,1.114-2.021,1.711-3.284,1.711c-0.79,0-1.588-0.233-2.285-0.72c-1.812-1.264-2.256-3.757-0.991-5.569  c11.736-16.82,28.305-34.94,52.442-25.702c2.063,0.789,3.096,3.103,2.306,5.165C333.048,401.533,330.731,402.566,328.672,401.775z   M175.946,496.563c1.897,1.131,2.52,3.586,1.389,5.484c-0.749,1.256-2.077,1.953-3.44,1.953c-0.696,0-1.401-0.183-2.044-0.564  c-12.045-7.177-21.694-17.42-28.771-30.519l-6.132,14.464c-0.469,1.104-1.408,1.941-2.561,2.278  c-1.151,0.336-2.396,0.139-3.385-0.541c-12.502-8.577-20.217-20.054-22.931-34.112c-0.418-2.169,1.001-4.267,3.17-4.686  c2.162-0.414,4.267,1,4.686,3.17c2.034,10.539,7.169,19.108,15.647,26.067l7.593-17.909c0.626-1.478,2.075-2.438,3.681-2.438  c0.001,0,0.001,0,0.002,0c1.604,0,3.054,0.958,3.682,2.436C153.194,477.319,162.816,488.74,175.946,496.563z M392.758,450.321  c2.169,0.419,3.588,2.517,3.17,4.686c-2.714,14.059-10.429,25.535-22.931,34.112c-0.99,0.68-2.231,0.877-3.385,0.541  c-1.152-0.337-2.092-1.174-2.561-2.278l-6.132-14.464c-7.076,13.099-16.726,23.342-28.771,30.519  c-0.643,0.382-1.348,0.564-2.044,0.564c-1.363,0-2.691-0.697-3.44-1.953c-1.131-1.898-0.509-4.354,1.389-5.484  c13.131-7.823,22.752-19.244,29.414-34.917c0.628-1.477,2.077-2.436,3.682-2.436c0.001,0,0.001,0,0.002,0  c1.605,0.001,3.055,0.961,3.681,2.438l7.593,17.909c8.479-6.959,13.613-15.528,15.647-26.067  C388.491,451.321,390.595,449.907,392.758,450.321z"></path></svg></svg> <defs><filter id="colors8263087808"><feColorMatrix type="matrix" values="0 0 0 0 0.6328125  0 0 0 0 0.23046875  0 0 0 0 0.9140625  0 0 0 1 0" class="icon-fecolormatrix"></feColorMatrix></filter> <filter id="colorsf4626055502"><feColorMatrix type="matrix" values="0 0 0 0 0.99609375  0 0 0 0 0.99609375  0 0 0 0 0.99609375  0 0 0 1 0" class="icon-fecolormatrix"></feColorMatrix></filter> <filter id="colorsb8302518657"><feColorMatrix type="matrix" values="0 0 0 0 0  0 0 0 0 0  0 0 0 0 0  0 0 0 1 0" class="icon-fecolormatrix"></feColorMatrix></filter></defs></g></g> <g transform="translate(67,2.4590492248535156)"><g data-gra="path-name" fill-rule="" class="tp-name iconsvg-namesvg" transform="translate(0,0)"><g transform="scale(1)"><g><path d="M35.82-32.65Q38.45-32.65 39.57-31.53 40.69-30.41 40.69-27.82L40.69-27.82 40.69-2.9Q40.69-0.31 39.55 0.81 38.41 1.93 35.82 1.93L35.82 1.93 9.14 1.93Q6.5 1.93 5.38 0.81 4.26-0.31 4.26-2.9L4.26-2.9 4.26-27.82Q4.26-30.45 5.38-31.55 6.5-32.65 9.14-32.65L9.14-32.65 35.82-32.65ZM36.91-4.53L36.91-26.28Q36.91-27.91 36.34-28.45 35.77-29 34.06-29L34.06-29 27.47-29 27.47-13.49Q27.47-12 29.49-12L29.49-12Q31.29-12 31.82-12.44L31.82-12.44Q32.26-12.79 32.3-14.85L32.3-14.85Q32.39-16.83 33.75-16.83L33.75-16.83Q35.42-16.83 35.42-15.03L35.42-15.03Q35.42-11.78 34.58-10.24L34.58-10.24Q33.71-8.57 30.37-8.57L30.37-8.57Q28.13-8.57 26.67-8.77 25.22-8.96 24.79-9.32L24.79-9.32Q23.95-9.98 23.95-11.65L23.95-11.65 23.95-29 18.9-29Q18.9-19.51 18.24-15.64L18.24-15.64Q17.62-12.17 15.38-9.84L15.38-9.84Q13.1-7.47 11.69-7.47L11.69-7.47Q9.93-7.47 9.93-9.4L9.93-9.4Q9.93-10.24 11.47-11.47L11.47-11.47Q13.01-12.74 13.89-14.46L13.89-14.46Q14.85-16.3 15.12-18.72L15.12-18.72Q15.34-20.74 15.34-29L15.34-29 10.9-29Q9.18-29 8.61-28.43 8.04-27.86 8.04-26.19L8.04-26.19 8.04-4.44Q8.04-2.81 8.61-2.26 9.18-1.71 10.9-1.71L10.9-1.71 34.15-1.71Q35.82-1.71 36.36-2.29 36.91-2.86 36.91-4.53L36.91-4.53ZM82.92 4Q80.99 4 80.99 1.58L80.99 1.58 80.99-32.65Q80.99-35.07 82.92-35.07L82.92-35.07Q83.94-35.07 84.4-34.48 84.86-33.88 84.86-32.65L84.86-32.65 84.86 1.58Q84.86 4 82.92 4L82.92 4ZM49.57 3.38Q47.55 3.38 47.55 1.19L47.55 1.19Q47.55 0.44 48.38-0.7L48.38-0.7Q50.93-4.31 51.86-8.75L51.86-8.75Q52.12-10.02 52.25-13.07 52.38-16.13 52.51-21.97L52.51-21.97 52.51-32.3Q52.51-33.57 53-34.17 53.48-34.76 54.49-34.76L54.49-34.76Q55.46-34.76 55.92-34.17 56.38-33.57 56.38-32.34L56.38-32.34 56.34-21.93Q56.29-15.42 55.83-10.83 55.37-6.24 54.58-3.96L54.58-3.96Q52.08 3.38 49.57 3.38L49.57 3.38ZM68.33-0.66Q66.45-0.66 66.45-3.03L66.45-3.03 66.45-31.11Q66.45-33.49 68.38-33.49L68.38-33.49Q70.27-33.49 70.27-31.11L70.27-31.11 70.27-3.03Q70.27-0.66 68.33-0.66L68.33-0.66ZM112.85 4.17Q110.96 4.17 110.96 1.89L110.96 1.89 110.96-10.85 94.79-10.85Q92.55-10.85 92.55-12.7L92.55-12.7Q92.55-14.46 94.79-14.46L94.79-14.46 110.96-14.46 110.96-24.3 100.85-24.3Q97.51-18.02 95.58-18.02L95.58-18.02Q93.56-18.02 93.56-19.95L93.56-19.95Q93.56-20.61 94.57-21.84L94.57-21.84Q98.39-26.59 100.46-32.7L100.46-32.7Q101.03-34.32 102.57-34.32L102.57-34.32Q103.4-34.32 103.97-33.88 104.55-33.44 104.55-32.78L104.55-32.78Q104.55-32.12 104.19-31.2 103.84-30.28 102.7-27.86L102.7-27.86 110.96-27.86 110.96-33.4Q110.96-35.73 112.9-35.73L112.9-35.73Q114.74-35.73 114.74-33.4L114.74-33.4 114.74-27.86 127.84-27.86Q130.03-27.86 130.03-26.06L130.03-26.06Q130.03-25.18 129.51-24.74 128.98-24.3 127.84-24.3L127.84-24.3 114.74-24.3 114.74-14.46 130.08-14.46Q132.36-14.46 132.36-12.66L132.36-12.66Q132.36-10.85 130.08-10.85L130.08-10.85 114.74-10.85 114.74 1.89Q114.74 3.08 114.28 3.63 113.82 4.17 112.85 4.17L112.85 4.17ZM144.93 4.31Q143.17 4.31 143.17 2.15L143.17 2.15 143.17-18.63Q140.01-12.92 139.09-12.92L139.09-12.92Q137.42-12.92 137.42-14.9L137.42-14.9Q137.42-15.64 139.09-18.24L139.09-18.24Q143.17-24.74 145.99-33.62L145.99-33.62Q146.34-34.76 146.82-35.29 147.3-35.82 148.01-35.82L148.01-35.82Q150.03-35.82 150.03-34.1L150.03-34.1Q150.03-33.49 146.73-25.97L146.73-25.97 146.73 2.15Q146.73 4.31 144.93 4.31L144.93 4.31ZM153.85-30.72Q152.01-30.72 152.01-32.39L152.01-32.39Q152.01-34.06 153.85-34.06L153.85-34.06 173.01-34.06Q174.86-34.06 174.86-32.39L174.86-32.39Q174.86-30.72 173.01-30.72L173.01-30.72 153.85-30.72ZM150.29-24.43Q148.18-24.43 148.18-26.1L148.18-26.1Q148.18-27.86 150.29-27.86L150.29-27.86 175.56-27.86Q177.63-27.86 177.63-26.1L177.63-26.1Q177.63-24.43 175.56-24.43L175.56-24.43 150.29-24.43ZM153.81-18.15Q152.01-18.15 152.01-19.82L152.01-19.82Q152.01-21.49 153.81-21.49L153.81-21.49 173.06-21.49Q174.86-21.49 174.86-19.82L174.86-19.82Q174.86-18.15 173.06-18.15L173.06-18.15 153.81-18.15ZM153.81-11.95Q152.01-11.95 152.01-13.62L152.01-13.62Q152.01-15.29 153.81-15.29L153.81-15.29 173.06-15.29Q174.86-15.29 174.86-13.62L174.86-13.62Q174.86-11.95 173.06-11.95L173.06-11.95 153.81-11.95ZM155.35 2.99Q153.24 2.99 152.29 2.11 151.35 1.23 151.44-0.7L151.44-0.7 151.44-5.45Q151.44-7.43 152.38-8.33 153.33-9.23 155.35-9.1L155.35-9.1 171.52-9.1Q173.58-9.1 174.55-8.24 175.52-7.38 175.43-5.45L175.43-5.45 175.43-0.7Q175.43 1.32 174.51 2.22 173.58 3.12 171.52 2.99L171.52 2.99 155.35 2.99ZM170.2-0.26Q171.69-0.26 171.78-1.8L171.78-1.8 171.78-4.39Q171.78-5.84 170.2-5.93L170.2-5.93 156.67-5.93Q155.17-5.93 155.08-4.39L155.08-4.39 155.08-1.8Q155.08-1.05 155.5-0.66 155.92-0.26 156.67-0.26L156.67-0.26 170.2-0.26Z" transform="translate(-4.260000228881836, 35.81999969482422)"></path></g> <!----> <!----> <!----> <!----> <!----> <!----> <!----></g></g> <g data-gra="path-slogan" fill-rule="" class="tp-slogan iconsvg-slogansvg" fill="#a23bea" transform="translate(38.61418151855469,46.130001068115234)"><!----> <!----> <g transform="scale(1, 1)"><g transform="scale(1)"><path d="M7.17-6.09L7.17-6.09L6.09-6.09Q6-7.73 3.94-7.83L3.94-7.83Q2.02-7.78 2.02-6.33L2.02-6.33Q2.02-5.39 3.05-5.25L3.05-5.25L5.48-4.69Q7.41-4.22 7.41-2.34L7.41-2.34Q7.36 0.05 4.03 0.14L4.03 0.14Q2.20 0.14 1.45-0.61L1.45-0.61Q0.52-1.31 0.56-2.77L0.56-2.77L1.69-2.77Q1.73-0.80 4.03-0.75L4.03-0.75Q6.28-0.80 6.33-2.20L6.33-2.20Q6.52-3.38 4.45-3.75L4.45-3.75L2.67-4.13Q0.84-4.64 0.84-6.19L0.84-6.19Q0.98-8.72 3.84-8.81L3.84-8.81Q7.08-8.81 7.17-6.09ZM9.05-8.58L10.22-8.58L10.22 0L9.05 0L9.05-8.58ZM19.36-6.05L19.36-6.05L18.23-6.05Q17.81-7.78 15.84-7.83L15.84-7.83Q13.13-7.69 13.03-4.36L13.03-4.36Q13.03-0.80 15.89-0.80L15.89-0.80Q17.86-0.84 18.33-3.19L18.33-3.19L19.45-3.19Q18.94 0.05 15.66 0.14L15.66 0.14Q11.91 0 11.81-4.31L11.81-4.31Q12-8.63 15.84-8.81L15.84-8.81Q18.89-8.72 19.36-6.05ZM21.98-5.06L26.48-5.06L26.48-8.58L27.66-8.58L27.66 0L26.48 0L26.48-3.98L21.98-3.98L21.98 0L20.81 0L20.81-8.58L21.98-8.58L21.98-5.06ZM35.11-3.19L35.11-8.58L36.28-8.58L36.28-3.05Q36.14 0.05 32.77 0.14L32.77 0.14Q29.63 0.05 29.48-2.86L29.48-2.86L29.48-8.58L30.66-8.58L30.66-3.19Q30.70-0.84 32.81-0.80L32.81-0.80Q35.11-0.84 35.11-3.19L35.11-3.19ZM43.73 0L42.89-2.48L39.42-2.48L38.53 0L37.36 0L40.59-8.58L41.91-8.58L45 0L43.73 0ZM41.16-7.31L39.80-3.52L42.47-3.52L41.20-7.31L41.16-7.31ZM47.44-8.58L51.75-1.64L51.75-8.58L52.88-8.58L52.88 0L51.56 0L47.20-6.94L47.16-6.94L47.16 0L46.03 0L46.03-8.58L47.44-8.58ZM59.39-8.58L63.70-1.64L63.70-8.58L64.83-8.58L64.83 0L63.52 0L59.16-6.94L59.11-6.94L59.11 0L57.98 0L57.98-8.58L59.39-8.58ZM66.80-8.58L67.97-8.58L67.97 0L66.80 0L66.80-8.58ZM75.61-3.19L75.61-8.58L76.78-8.58L76.78-3.05Q76.64 0.05 73.27 0.14L73.27 0.14Q70.13 0.05 69.98-2.86L69.98-2.86L69.98-8.58L71.16-8.58L71.16-3.19Q71.20-0.84 73.31-0.80L73.31-0.80Q75.61-0.84 75.61-3.19L75.61-3.19ZM85.31-8.58L82.41-4.41L85.45 0L84 0L81.66-3.52L79.31 0L77.91 0L81-4.41L78.09-8.58L79.55-8.58L81.70-5.30L83.91-8.58L85.31-8.58ZM86.72-8.58L87.89-8.58L87.89 0L86.72 0L86.72-8.58ZM91.27-8.58L95.58-1.64L95.58-8.58L96.70-8.58L96.70 0L95.39 0L91.03-6.94L90.98-6.94L90.98 0L89.86 0L89.86-8.58L91.27-8.58Z" transform="translate(-0.5602678571428572, 8.8125)"></path></g></g></g></g></g><defs v-gra="od"></defs></svg>